<?xml version="1.0" encoding="UTF-8"?>
<svg version="1.1" xmlns="http://www.w3.org/2000/svg" width="1024" height="1024">
<path d="M0 0 C4.06807384 1.41056652 7.06797466 3.84566233 10.44140625 6.4765625 C11.50862915 7.29459351 11.50862915 7.29459351 12.59741211 8.12915039 C18.43641329 12.62601931 24.189997 17.21575467 29.81640625 21.9765625 C30.39777344 22.46769531 30.97914063 22.95882813 31.578125 23.46484375 C38.87354722 29.64715 45.9341439 35.91717959 52.609375 42.76953125 C54.68650068 44.84665693 56.82842638 46.76325474 59.06640625 48.6640625 C62.19647133 51.34067751 64.83944129 54.19359012 67.4609375 57.36328125 C69.96040124 60.33814732 72.78699087 62.99022838 75.58984375 65.67578125 C80.64289656 70.59901254 85.10493194 75.84071465 89.50341797 81.3515625 C90.92275636 83.1081851 92.36905283 84.83998206 93.8203125 86.5703125 C124.89210234 123.82806264 124.89210234 123.82806264 124.81640625 139.9765625 C122.54599334 159.35075269 104.67359277 177.9792563 92.35107422 192.15478516 C91.21992165 193.49755647 90.11901231 194.86594534 89.03564453 196.24755859 C82.60181835 204.39301096 75.4241851 211.6736147 68.06982422 218.98388672 C65.94524945 221.0977387 63.83158564 223.22207792 61.71875 225.34765625 C54.38874601 232.6847943 46.99708627 239.58799535 38.81640625 245.9765625 C37.00111667 247.5149435 35.1879865 249.05588433 33.37890625 250.6015625 C21.13743345 260.81609 8.26953473 270.41698877 -5.18359375 278.9765625 C-6.64584887 279.91924674 -8.10808702 280.86195729 -9.5703125 281.8046875 C-72.30218031 322.05235878 -146.15527541 344.9541222 -221.12109375 339.0390625 C-223.56248195 338.85522889 -226.00388808 338.6716332 -228.4453125 338.48828125 C-229.60208496 338.39981934 -230.75885742 338.31135742 -231.95068359 338.22021484 C-236.1101697 337.90672994 -240.27114534 337.62244786 -244.43359375 337.3515625 C-245.573125 337.27679687 -246.71265625 337.20203125 -247.88671875 337.125 C-248.6446875 337.07601563 -249.40265625 337.02703125 -250.18359375 336.9765625 C-250.18359375 336.3165625 -250.18359375 335.6565625 -250.18359375 334.9765625 C-250.91932617 334.934104 -251.65505859 334.89164551 -252.41308594 334.84790039 C-259.64995596 334.34965998 -266.4189709 333.2352466 -273.43359375 331.4140625 C-274.95702393 331.02577271 -274.95702393 331.02577271 -276.51123047 330.62963867 C-304.60389125 323.27326942 -304.60389125 323.27326942 -316.18359375 316.9765625 C-315.07872168 313.66194628 -314.31544293 313.01776673 -311.68994141 310.8671875 C-306.85440328 306.76178272 -302.48833554 302.28356946 -298.08203125 297.7265625 C-296.35898032 295.9665591 -294.63499469 294.20747038 -292.91015625 292.44921875 C-290.21764044 289.70091741 -287.53092959 286.94789247 -284.859375 284.17919922 C-282.26204988 281.49134689 -279.64320713 278.82616562 -277.01953125 276.1640625 C-276.22251801 275.3277832 -275.42550476 274.49150391 -274.6043396 273.62988281 C-269.00121563 267.998864 -269.00121563 267.998864 -264.8449707 267.88549805 C-263.96671631 268.24554932 -263.08846191 268.60560059 -262.18359375 268.9765625 C-261.05566406 269.39550781 -259.92773438 269.81445312 -258.765625 270.24609375 C-257.50884296 270.75975257 -256.25234678 271.27411122 -254.99609375 271.7890625 C-248.8819949 274.18410558 -242.79782156 275.94435178 -236.37109375 277.2890625 C-235.61997314 277.44802002 -234.86885254 277.60697754 -234.0949707 277.77075195 C-196.79075517 285.15527345 -157.04637745 277.67212655 -125.18359375 256.9765625 C-115.76135453 250.46901714 -104.57452254 242.56295569 -98.18359375 232.9765625 C-97.52359375 232.9765625 -96.86359375 232.9765625 -96.18359375 232.9765625 C-95.92578125 232.40421875 -95.66796875 231.831875 -95.40234375 231.2421875 C-94.06910416 228.76372928 -92.50984021 226.86716286 -90.68359375 224.7265625 C-66.56300168 194.95886266 -54.8996437 156.52009275 -58.6796875 118.4140625 C-59.98313761 107.1325108 -62.31584447 96.64253367 -66.18359375 85.9765625 C-66.58320312 84.86925781 -66.9828125 83.76195312 -67.39453125 82.62109375 C-68.07795433 80.74773898 -68.7724879 78.87834934 -69.484375 77.015625 C-70.18359375 74.9765625 -70.18359375 74.9765625 -70.18359375 72.9765625 C-70.84359375 72.9765625 -71.50359375 72.9765625 -72.18359375 72.9765625 C-70.6895226 68.2453372 -70.6895226 68.2453372 -68.18359375 66.9140625 C-67.52359375 66.6046875 -66.86359375 66.2953125 -66.18359375 65.9765625 C-65.88493408 65.37457031 -65.58627441 64.77257812 -65.27856445 64.15234375 C-64.04092548 61.69307094 -62.61412207 60.1638635 -60.6640625 58.2265625 C-59.97119141 57.535625 -59.27832031 56.8446875 -58.56445312 56.1328125 C-57.84064453 55.42125 -57.11683594 54.7096875 -56.37109375 53.9765625 C-55.65888672 53.265 -54.94667969 52.5534375 -54.21289062 51.8203125 C-50.67919543 48.31603752 -47.13591872 45.01292894 -43.18359375 41.9765625 C-40.33825354 39.27713717 -37.71768061 36.4643222 -35.18359375 33.4765625 C-30.81432018 28.33102205 -25.99712468 23.88615357 -20.85546875 19.52734375 C-19.08033012 18.06305783 -19.08033012 18.06305783 -18.18359375 15.9765625 C-17.52359375 15.9765625 -16.86359375 15.9765625 -16.18359375 15.9765625 C-16.18359375 15.3165625 -16.18359375 14.6565625 -16.18359375 13.9765625 C-14.52144107 12.63760618 -12.85395768 11.30526108 -11.18359375 9.9765625 C-9.82972439 8.32653422 -8.49681233 6.6591238 -7.18359375 4.9765625 C-2.93760177 -0.03153061 -2.93760177 -0.03153061 0 0 Z " fill="#7994A8" transform="translate(713.18359375,370.0234375)"/>
<path d="M0 0 C7.09564699 4.99768734 11.15049569 10.69138893 13.3828125 19.09765625 C14.93163217 28.26721694 11.80627669 35.23785059 6.82421875 42.7109375 C6.16421875 42.7109375 5.50421875 42.7109375 4.82421875 42.7109375 C4.49421875 43.7009375 4.16421875 44.6909375 3.82421875 45.7109375 C2.22265625 47.25390625 2.22265625 47.25390625 0.19921875 48.8984375 C-3.45548193 51.98433861 -6.50797205 55.2983772 -9.59375 58.94140625 C-11.57566762 61.15821781 -13.85611439 62.85520402 -16.17578125 64.7109375 C-17.22702914 65.88015404 -18.25751226 67.068163 -19.27416992 68.26757812 C-23.3555665 72.9799162 -27.69790574 77.39481815 -32.1015625 81.8046875 C-33.34476509 83.05288269 -33.34476509 83.05288269 -34.61308289 84.32629395 C-36.35052895 86.06876961 -38.08930221 87.80992283 -39.8293457 89.54980469 C-42.5030441 92.22571255 -45.16861782 94.90954607 -47.83398438 97.59375 C-49.52685493 99.28955062 -51.22019731 100.98488038 -52.9140625 102.6796875 C-53.71298416 103.48579468 -54.51190582 104.29190186 -55.33503723 105.12243652 C-56.0730809 105.85740356 -56.81112457 106.59237061 -57.5715332 107.34960938 C-58.22104446 108.00054565 -58.87055573 108.65148193 -59.53974915 109.32214355 C-61.17578125 110.7109375 -61.17578125 110.7109375 -63.17578125 110.7109375 C-63.52005063 111.54276613 -63.52005063 111.54276613 -63.87127495 112.39139938 C-65.5425781 115.3631377 -67.63286577 117.41349002 -70.04788208 119.82354736 C-70.54778432 120.32515845 -71.04768656 120.82676954 -71.56273735 121.34358096 C-73.23779272 123.02192864 -74.91989253 124.69303146 -76.60205078 126.36425781 C-77.80473051 127.56637337 -79.00696996 128.76892954 -80.20880127 129.97189331 C-83.47271025 133.23637658 -86.74275307 136.49465266 -90.0139184 139.75186253 C-93.43145883 143.15690836 -96.84334391 146.56761118 -100.25582886 149.97772217 C-106.71871875 156.43439356 -113.18669042 162.88594938 -119.65649593 169.33569026 C-127.02188959 176.67873645 -134.38161135 184.02745614 -141.74085832 191.37666178 C-156.87952272 206.4944158 -172.02530831 221.6050182 -187.17578125 236.7109375 C-185.60879658 240.72907614 -183.75585986 244.45956309 -181.73828125 248.2734375 C-178.50686936 254.57477393 -176.45737488 260.71856264 -175.17578125 267.7109375 C-175.04558594 268.40445312 -174.91539062 269.09796875 -174.78125 269.8125 C-174.47694862 271.78437293 -174.29839408 273.71940783 -174.17578125 275.7109375 C-174.09650391 276.99484375 -174.09650391 276.99484375 -174.015625 278.3046875 C-173.26521869 302.57870046 -183.16708713 323.92349959 -199.17578125 341.7109375 C-214.99677672 357.53193297 -235.64575763 366.66153852 -258.05078125 366.9609375 C-272.7351217 366.8162642 -285.67804796 363.29352535 -299.17578125 357.7109375 C-300.84183693 357.04274538 -302.50839165 356.37579398 -304.17578125 355.7109375 C-304.74763153 356.287229 -305.31948181 356.86352051 -305.90866089 357.45727539 C-311.28916569 362.87779412 -316.67441948 368.29352811 -322.0651226 373.7039032 C-324.83660751 376.4858415 -327.60619484 379.26961632 -330.37158203 382.05761719 C-333.03858533 384.7462935 -335.71039321 387.43010636 -338.38565445 390.11056519 C-339.40730864 391.13592512 -340.42719603 392.16304852 -341.44530869 393.19192505 C-342.86759271 394.62864985 -344.29666882 396.05864135 -345.72607422 397.48828125 C-346.94518997 398.71405884 -346.94518997 398.71405884 -348.18893433 399.96459961 C-350.17578125 401.7109375 -350.17578125 401.7109375 -352.17578125 401.7109375 C-352.41683594 402.29101562 -352.65789062 402.87109375 -352.90625 403.46875 C-354.41590562 406.13503409 -356.1426103 407.62267005 -358.48828125 409.5859375 C-362.1306624 412.72372126 -365.10341641 416.00834397 -368.17578125 419.7109375 C-369.23324702 420.64629128 -370.30881932 421.56130903 -371.39501953 422.46313477 C-377.57485064 427.81316062 -383.24635233 433.68826523 -388.99822617 439.48878288 C-391.13895422 441.64704092 -393.28332773 443.80161571 -395.42874146 445.95521545 C-401.52222946 452.0730521 -407.60989046 458.19666385 -413.69335938 464.32446289 C-417.42660251 468.0844027 -421.16463307 471.83952662 -424.9057045 475.59167671 C-426.32941336 477.02160748 -427.75122018 478.45343455 -429.17110825 479.88715935 C-431.14588527 481.88103457 -433.12663692 483.86878259 -435.10888672 485.85522461 C-435.69692581 486.4520253 -436.2849649 487.04882599 -436.89082336 487.66371155 C-440.94788208 491.7109375 -440.94788208 491.7109375 -443.17578125 491.7109375 C-443.42328125 492.3296875 -443.67078125 492.9484375 -443.92578125 493.5859375 C-445.41318494 496.11452377 -446.61256134 496.42932754 -449.17578125 497.7109375 C-450.267444 499.64424353 -450.267444 499.64424353 -451.17578125 501.7109375 C-452.67578125 503.4609375 -452.67578125 503.4609375 -454.17578125 504.7109375 C-454.83578125 504.7109375 -455.49578125 504.7109375 -456.17578125 504.7109375 C-456.50578125 505.7009375 -456.83578125 506.6909375 -457.17578125 507.7109375 C-458.62890625 509.140625 -458.62890625 509.140625 -460.42578125 510.5859375 C-465.84932449 514.97756765 -470.56740223 520.13053925 -475.43193054 525.12098694 C-478.8323779 528.60185181 -482.24883637 532.06681542 -485.66625977 535.53100586 C-487.46077595 537.35573659 -489.24987574 539.18581027 -491.03344727 541.02124023 C-493.62261353 543.68355624 -496.23100872 546.32568471 -498.84375 548.96484375 C-500.0224189 550.18996422 -500.0224189 550.18996422 -501.22489929 551.43983459 C-507.2317266 557.45022539 -513.52893829 561.50239509 -522.17578125 562.2109375 C-530.31326944 561.7177564 -537.77289224 557.69270747 -543.17578125 551.7109375 C-549.1151842 544.0971284 -550.84234573 536.9345793 -549.71875 527.390625 C-548.48911222 521.32205294 -545.39691597 516.2134812 -541.17578125 511.7109375 C-540.51578125 511.7109375 -539.85578125 511.7109375 -539.17578125 511.7109375 C-538.91388756 511.12428188 -538.65199387 510.53762627 -538.382164 509.93319321 C-537.10822121 507.58648638 -535.75672287 506.0403068 -533.87365723 504.15484619 C-533.19225174 503.46780106 -532.51084625 502.78075592 -531.80879211 502.07289124 C-531.06171494 501.32986252 -530.31463776 500.5868338 -529.54492188 499.82128906 C-528.75780319 499.03066574 -527.97068451 498.24004242 -527.15971375 497.42546082 C-524.5554976 494.81243867 -521.94402971 492.20680371 -519.33203125 489.6015625 C-517.52334778 487.79153233 -515.71496133 485.98120531 -513.90686035 484.17059326 C-510.11709624 480.37787964 -506.32383119 476.58871567 -502.52783203 472.80224609 C-498.13537217 468.42068579 -493.75018495 464.03194567 -489.36867571 459.63943696 C-485.15511826 455.41572469 -480.93597016 451.19763201 -476.71440125 446.98192596 C-474.91709866 445.18596161 -473.12129174 443.38849924 -471.32698059 441.5895462 C-468.82499425 439.08250818 -466.3167341 436.58192512 -463.80664062 434.08300781 C-462.68602486 432.95631935 -462.68602486 432.95631935 -461.54277039 431.80686951 C-460.8613649 431.13110367 -460.17995941 430.45533783 -459.47790527 429.75909424 C-458.88502464 429.16696766 -458.29214401 428.57484108 -457.6812973 427.96477127 C-456.17578125 426.7109375 -456.17578125 426.7109375 -454.17578125 426.7109375 C-453.96276367 426.17267334 -453.74974609 425.63440918 -453.53027344 425.07983398 C-451.67686292 421.83836999 -449.14052817 419.41010369 -446.50390625 416.80859375 C-445.94386902 416.24901474 -445.38383179 415.68943573 -444.80682373 415.11289978 C-443.62227871 413.93137057 -442.43530944 412.75226748 -441.24609375 411.57543945 C-439.44087603 409.78838044 -437.64369187 407.99354769 -435.84765625 406.19726562 C-434.69187494 405.04640411 -433.53563924 403.89599873 -432.37890625 402.74609375 C-431.84742981 402.21573013 -431.31595337 401.68536652 -430.76837158 401.13893127 C-427.38087186 397.79350796 -423.8519229 394.73572796 -420.17578125 391.7109375 C-419.11743291 390.57819279 -418.08827405 389.41617642 -417.11328125 388.2109375 C-414.64411312 385.17636565 -411.95626174 382.46453489 -409.17578125 379.7109375 C-407.86856479 378.38271678 -406.56268413 377.05318066 -405.2578125 375.72265625 C-403.83473658 374.28115012 -402.41155731 372.83974602 -400.98828125 371.3984375 C-400.26447266 370.65787109 -399.54066406 369.91730469 -398.79492188 369.15429688 C-398.10205078 368.45498047 -397.40917969 367.75566406 -396.6953125 367.03515625 C-396.06729736 366.39666748 -395.43928223 365.75817871 -394.79223633 365.1003418 C-393.17578125 363.7109375 -393.17578125 363.7109375 -391.17578125 363.7109375 C-390.92804773 363.13839493 -390.68031422 362.56585236 -390.42507362 361.97596002 C-388.97855928 359.35336532 -387.30504991 357.58946955 -385.18710327 355.47057724 C-384.34833963 354.62659811 -383.509576 353.78261898 -382.64539528 352.91306472 C-381.71875761 351.99088849 -380.79211994 351.06871227 -379.83740234 350.11859131 C-378.8467252 349.12561017 -377.85648454 348.13219339 -376.86664391 347.13837838 C-374.14314563 344.40651541 -371.41342512 341.68094446 -368.68265057 338.95635748 C-365.73970072 336.01792413 -362.80250107 333.07375277 -359.86456299 330.13031006 C-354.10789095 324.36473447 -348.34581232 318.60459149 -342.5817914 312.84636375 C-337.89950338 308.16858756 -333.21916511 303.48886893 -328.54022217 298.80774689 C-327.8749839 298.14220215 -327.20974562 297.47665741 -326.52434862 296.79094465 C-325.17307866 295.43903527 -323.82181321 294.08712139 -322.47055221 292.73520306 C-309.7937276 280.05267257 -297.11077478 267.37628474 -284.42572761 254.70197919 C-273.53099173 243.81618317 -262.64151618 232.92514815 -251.75585938 222.03027344 C-239.12462965 209.38835273 -226.49017731 196.74966728 -213.85052681 184.1161654 C-212.50412711 182.77040283 -211.1577316 181.42463606 -209.81134033 180.07886505 C-208.81756774 179.08555528 -208.81756774 179.08555528 -207.80371892 178.07217865 C-203.12500775 173.39519763 -198.44862822 168.71589298 -193.77313232 164.03569794 C-188.0803104 158.33728036 -182.38396665 152.6424122 -176.68300772 146.95213482 C-173.77193562 144.0463366 -170.86251825 141.13892972 -167.95737457 138.22720337 C-165.30194785 135.56585064 -162.6420098 132.90909836 -159.97827649 130.25606039 C-158.55089448 128.83199801 -157.12846234 127.40297964 -155.70616722 125.97383666 C-154.86740358 125.14028852 -154.02863995 124.30674037 -153.16445923 123.4479332 C-152.43723978 122.72103845 -151.71002033 121.99414371 -150.96076393 121.24522185 C-149.17578125 119.7109375 -149.17578125 119.7109375 -147.17578125 119.7109375 C-146.92505859 119.13569336 -146.67433594 118.56044922 -146.41601562 117.96777344 C-145.00849298 115.40652554 -143.394081 113.67036358 -141.33203125 111.6015625 C-140.58050781 110.84746094 -139.82898438 110.09335937 -139.0546875 109.31640625 C-138.26964844 108.53910156 -137.48460937 107.76179688 -136.67578125 106.9609375 C-135.49822266 105.77177734 -135.49822266 105.77177734 -134.296875 104.55859375 C-133.54535156 103.80964844 -132.79382813 103.06070313 -132.01953125 102.2890625 C-131.33052734 101.60231445 -130.64152344 100.91556641 -129.93164062 100.20800781 C-128.17578125 98.7109375 -128.17578125 98.7109375 -126.17578125 98.7109375 C-126.17578125 98.0509375 -126.17578125 97.3909375 -126.17578125 96.7109375 C-124.54697423 94.98630689 -122.8874098 93.35022436 -121.17578125 91.7109375 C-120.04532852 90.57639526 -118.91834226 89.43839221 -117.79418945 88.29760742 C-114.42211786 84.89007208 -111.04406095 81.48854022 -107.66381836 78.08911133 C-106.20631649 76.62146861 -104.75060253 75.15204831 -103.29663086 73.6809082 C-101.19458632 71.55473758 -99.08626509 69.43497479 -96.9765625 67.31640625 C-96.32448318 66.65400436 -95.67240387 65.99160248 -95.00056458 65.30912781 C-94.39621078 64.70462296 -93.79185699 64.1001181 -93.16918945 63.47729492 C-92.63800003 62.94166428 -92.10681061 62.40603363 -91.55952454 61.85417175 C-90.17578125 60.7109375 -90.17578125 60.7109375 -88.17578125 60.7109375 C-87.51578125 59.3909375 -86.85578125 58.0709375 -86.17578125 56.7109375 C-85.51578125 56.7109375 -84.85578125 56.7109375 -84.17578125 56.7109375 C-83.9450592 56.15555298 -83.71433716 55.60016846 -83.47662354 55.0279541 C-81.82030273 52.07777109 -79.75385032 50.03452483 -77.36230469 47.63867188 C-76.63017509 46.90128532 -76.63017509 46.90128532 -75.883255 46.14900208 C-74.2722087 44.52917132 -72.65397687 42.91674609 -71.03515625 41.3046875 C-69.9086633 40.17684653 -68.78246732 39.04870887 -67.65655518 37.92028809 C-65.29592362 35.55670935 -62.93171683 33.19678153 -60.56494141 30.83935547 C-57.54094462 27.82672671 -54.52598045 24.80524373 -51.51366806 21.78093719 C-49.18892384 19.44894109 -46.8594061 17.12176028 -44.52845001 14.79597473 C-43.41548343 13.68433681 -42.30398537 12.5712265 -41.19402313 11.45658875 C-39.63643571 9.89388424 -38.07251297 8.33779719 -36.50683594 6.78320312 C-35.17685577 5.45560974 -35.17685577 5.45560974 -33.82000732 4.10119629 C-23.69998907 -5.04683489 -11.87632579 -7.03624329 0 0 Z " fill="#7994A8" transform="translate(770.17578125,226.2890625)"/>
<path d="M0 0 C30.8271278 -1.38760426 76.47376761 1.33152632 102.58447266 19.12548828 C102.91447266 19.78548828 103.24447266 20.44548828 103.58447266 21.12548828 C103.17156982 21.46692871 102.75866699 21.80836914 102.33325195 22.16015625 C94.94889141 28.43594293 88.22034193 35.3805461 81.39697266 42.25048828 C80.12702578 43.5254624 78.85684517 44.80020374 77.58642578 46.07470703 C74.7399382 48.93108949 71.89543134 51.78942035 69.05410767 54.65093994 C67.65481633 56.05490943 66.24622115 57.44958783 64.8371582 58.84375 C62.48816592 61.15577429 62.48816592 61.15577429 60.20947266 64.00048828 C57.58447266 66.12548828 57.58447266 66.12548828 54.58447266 66.18798828 C51.21161883 65.42637613 47.94048722 64.29675928 44.64697266 63.25048828 C12.32626205 53.02241531 -23.55956229 55.3188647 -54.41552734 69.12548828 C-55.55376953 69.62693359 -56.69201172 70.12837891 -57.86474609 70.64501953 C-71.8153298 77.18286434 -84.3789957 86.41525409 -95.41552734 97.12548828 C-96.20830078 97.84478516 -97.00107422 98.56408203 -97.81787109 99.30517578 C-121.7050305 121.72061447 -136.22713647 155.67316277 -137.54174805 188.25366211 C-137.98066972 207.81006112 -137.23135629 225.99584833 -130.95385742 244.61083984 C-129.67828765 248.50149593 -129.16609488 251.17911013 -130.41552734 255.12548828 C-131.07552734 255.12548828 -131.73552734 255.12548828 -132.41552734 255.12548828 C-132.41552734 255.78548828 -132.41552734 256.44548828 -132.41552734 257.12548828 C-133.92339039 258.61055756 -133.92339039 258.61055756 -135.98506165 260.32116699 C-139.96172998 263.70510807 -143.65388542 267.26368522 -147.30297852 270.99462891 C-148.62078246 272.33207295 -149.93858748 273.66951594 -151.25639343 275.00695801 C-151.94116949 275.70396317 -152.62594555 276.40096832 -153.3314724 277.11909485 C-156.9900137 280.83890311 -160.6642351 284.54319456 -164.33544922 288.25048828 C-168.99166414 292.9547326 -173.6431187 297.66344675 -178.27954102 302.38720703 C-182.04297857 306.2207219 -185.82075137 310.03956905 -189.60863686 313.84892273 C-191.04739277 315.30128954 -192.48071175 316.75906303 -193.90846825 318.22224426 C-195.89749635 320.25931571 -197.90424866 322.27716696 -199.91625977 324.29150391 C-200.79616577 325.20612396 -200.79616577 325.20612396 -201.69384766 326.13922119 C-203.36247253 327.78723145 -203.36247253 327.78723145 -206.41552734 330.12548828 C-210.93406768 330.08254409 -213.53812808 327.84433191 -217.04052734 325.12548828 C-217.56267822 324.72249512 -218.0848291 324.31950195 -218.62280273 323.90429688 C-223.97307762 319.75042198 -229.21464278 315.46434778 -234.41552734 311.12548828 C-235.41068359 310.30564453 -236.40583984 309.48580078 -237.43115234 308.64111328 C-253.4052717 295.39270694 -268.77652212 281.07419104 -281.96630859 265.02783203 C-282.63545288 264.2163269 -282.63545288 264.2163269 -283.31811523 263.38842773 C-284.6103619 261.81754843 -285.89591098 260.24116674 -287.18115234 258.66455078 C-289.34348869 255.98705001 -289.34348869 255.98705001 -292.41552734 254.12548828 C-293.44952994 252.47970081 -294.44403536 250.80893151 -295.41552734 249.12548828 C-296.49603289 247.61963448 -297.57776344 246.11454855 -298.67700195 244.62231445 C-303.16655793 238.51676613 -307.35587657 232.25127531 -311.35302734 225.81298828 C-311.81322266 225.0850708 -312.27341797 224.35715332 -312.74755859 223.60717773 C-317.37938881 216.03848624 -320.71884554 208.13023216 -319.41552734 199.12548828 C-315.72273888 184.35433442 -305.26530505 172.80444382 -296.01611328 161.14453125 C-294.68681317 159.46769905 -293.36642116 157.78380958 -292.04833984 156.09814453 C-287.41554597 150.2094728 -282.45758038 144.66451787 -277.41552734 139.12548828 C-276.09831772 137.65051401 -274.78541109 136.17167896 -273.47802734 134.68798828 C-272.66011719 133.76179688 -272.66011719 133.76179688 -271.82568359 132.81689453 C-270.23430695 130.96931322 -270.23430695 130.96931322 -268.41552734 128.12548828 C-267.75552734 128.12548828 -267.09552734 128.12548828 -266.41552734 128.12548828 C-266.16287109 127.53380859 -265.91021484 126.94212891 -265.64990234 126.33251953 C-264.27003837 123.86535768 -262.85191628 122.58836999 -260.66552734 120.81298828 C-257.9935355 118.55909588 -255.62848352 116.33088801 -253.41552734 113.62548828 C-250.74195053 110.39132278 -247.80012398 107.71500307 -244.60693359 105.00048828 C-242.22691651 102.96411003 -239.91638123 100.86220276 -237.60302734 98.75048828 C-195.69239323 61.08156487 -122.82139507 9.12548828 -64.41552734 9.12548828 C-64.08552734 8.46548828 -63.75552734 7.80548828 -63.41552734 7.12548828 C-61.57899606 6.84709517 -59.73866073 6.5858243 -57.890625 6.3984375 C-55.20407995 6.10217025 -52.56076243 5.67477672 -49.89599609 5.22314453 C-33.28924357 2.4695009 -16.80427144 0.87299328 0 0 Z " fill="#7994A8" transform="translate(505.41552734375,304.87451171875)"/>
<path d="M0 0 C0 3 0 3 -1.92093658 5.29008007 C-2.82798088 6.19435899 -3.73502518 7.09863791 -4.66955566 8.03031921 C-5.1718326 8.53515943 -5.67410954 9.03999964 -6.191607 9.56013805 C-7.88435107 11.2578419 -9.58763029 12.9445699 -11.29101562 14.6315918 C-12.50346697 15.84319735 -13.71525894 17.05546305 -14.92643738 18.26834106 C-18.22336587 21.56613278 -21.52948405 24.85457219 -24.83727837 28.14146018 C-28.28996529 31.57543482 -31.73419811 35.01786699 -35.17932129 38.45942688 C-41.7075788 44.97834789 -48.24344827 51.48958184 -54.78205919 57.99811631 C-62.2243293 65.40689234 -69.65811581 72.82415548 -77.09118748 80.24215829 C-92.38467686 95.5042623 -107.68883555 110.75562931 -123 126 C-121.43301533 130.01813864 -119.58007861 133.74862559 -117.5625 137.5625 C-114.33108811 143.86383643 -112.28159363 150.00762514 -111 157 C-110.86980469 157.69351563 -110.73960937 158.38703125 -110.60546875 159.1015625 C-110.30116737 161.07343543 -110.12261283 163.00847033 -110 165 C-109.94714844 165.8559375 -109.89429688 166.711875 -109.83984375 167.59375 C-109.08943744 191.86776296 -118.99130588 213.21256209 -135 231 C-150.82099547 246.82099547 -171.46997638 255.95060102 -193.875 256.25 C-208.55934045 256.1053267 -221.50226671 252.58258785 -235 247 C-236.65 246.34 -238.3 245.68 -240 245 C-255.18 260.18 -270.36 275.36 -286 291 C-286.66 290.67 -287.32 290.34 -288 290 C-281.78198639 283.73572188 -275.55864253 277.47680335 -269.32835579 271.22473145 C-266.43580344 268.32172529 -263.54514757 265.41688117 -260.65869141 262.5078125 C-257.87497811 259.70242766 -255.08646031 256.90190373 -252.29449081 254.10473633 C-251.22817956 253.03471906 -250.16363517 251.96293816 -249.10086441 250.8894043 C-247.61626336 249.39036392 -246.12560122 247.89762009 -244.63330078 246.40625 C-243.36089035 245.12717773 -243.36089035 245.12717773 -242.06277466 243.82226562 C-240 242 -240 242 -238 242 C-237.63841797 241.1646875 -237.63841797 241.1646875 -237.26953125 240.3125 C-235.7273879 237.50342658 -233.83984947 235.37301051 -231.6875 233 C-230.92824219 232.154375 -230.16898437 231.30875 -229.38671875 230.4375 C-227.05403207 228.05518169 -224.6084267 226.07056507 -222 224 C-218.62808094 220.71861979 -215.44561888 217.31094458 -212.30517578 213.80908203 C-205.33026698 206.13032272 -197.95982126 198.84692319 -190.60744858 191.53228378 C-188.06668005 189.00443692 -185.52918772 186.47334041 -182.99246216 183.94143677 C-177.62280683 178.58311365 -172.24918131 173.22878321 -166.875 167.875 C-160.60903954 161.63265375 -154.34472363 155.38867484 -148.08456802 149.14050674 C-145.58208129 146.64451024 -143.07660994 144.15153607 -140.5710144 141.65866089 C-139.04963807 140.14091403 -137.52840024 138.62302831 -136.00732422 137.10498047 C-134.95862907 136.06403481 -134.95862907 136.06403481 -133.88874817 135.00205994 C-133.2553804 134.36876266 -132.62201263 133.73546539 -131.9694519 133.08297729 C-131.41683622 132.53258223 -130.86422054 131.98218716 -130.29485893 131.41511345 C-128.89138687 130.01099092 -128.89138687 130.01099092 -128 128 C-127.34 128 -126.68 128 -126 128 C-125.77205309 127.44701359 -125.54410618 126.89402718 -125.30925179 126.3242836 C-123.6183804 123.3225198 -121.49221068 121.24677187 -119.05197144 118.8114624 C-118.28986742 118.04679511 -118.28986742 118.04679511 -117.51236737 117.26668 C-115.80967375 115.56069363 -114.09993321 113.86195128 -112.39013672 112.16308594 C-111.16775282 110.94126619 -109.94580917 109.71900585 -108.72427368 108.49633789 C-105.40664767 105.17813755 -102.0828869 101.86614413 -98.75800467 98.55521679 C-95.28441009 95.09411618 -91.81647027 91.6273592 -88.34793091 88.16119385 C-81.77879315 81.59827477 -75.20457332 75.04047104 -68.62852013 68.48448205 C-61.14221004 61.02051885 -53.66157135 53.55088266 -46.18140769 46.08076048 C-30.79391498 30.71417856 -15.39930086 15.35474801 0 0 Z " fill="#678397" transform="translate(706,337)"/>
<path d="M0 0 C-0.55727506 3.63229326 -1.76931676 5.00098805 -4.59423828 7.28344727 C-8.80088928 10.8022083 -12.65138703 14.5543851 -16.4921875 18.46484375 C-17.86966444 19.85494379 -19.24727223 21.24491418 -20.625 22.63476562 C-22.76653766 24.80129119 -24.90642173 26.96940629 -27.04394531 29.13989258 C-29.1265556 31.25251779 -31.21518989 33.35903353 -33.3046875 35.46484375 C-33.94735565 36.12097153 -34.5900238 36.7770993 -35.25216675 37.45310974 C-35.84683746 38.05115921 -36.44150818 38.64920868 -37.05419922 39.26538086 C-37.57634003 39.7949791 -38.09848083 40.32457733 -38.63644409 40.870224 C-40 42 -40 42 -42 42 C-42 42.66 -42 43.32 -42 44 C-43.43153381 45.4127655 -43.43153381 45.4127655 -45.43383789 47.06713867 C-50.21009808 51.13147897 -54.63147416 55.48727149 -59.05859375 59.92578125 C-59.8883522 60.75458298 -60.71811066 61.5833847 -61.57301331 62.43730164 C-63.31121573 64.17482795 -65.04817362 65.91360011 -66.78393555 67.65356445 C-69.45052182 70.32554818 -72.12245688 72.99210056 -74.79492188 75.65820312 C-76.48730026 77.35124159 -78.17936881 79.04458985 -79.87109375 80.73828125 C-80.67203964 81.53720291 -81.47298553 82.33612457 -82.29820251 83.15925598 C-83.03309402 83.89729965 -83.76798553 84.63534332 -84.52514648 85.39575195 C-85.17386215 86.04526321 -85.82257782 86.69477448 -86.49095154 87.3639679 C-88.08678208 88.94214907 -88.08678208 88.94214907 -89 91 C-89.66 91 -90.32 91 -91 91 C-90.36150729 65.20489433 -82.57588888 44.33347777 -65 25 C-57.98132873 18.33513096 -50.65485016 13.27333227 -42 9 C-41.360625 8.63390625 -40.72125 8.2678125 -40.0625 7.890625 C-28.02638598 1.14625077 -13.55656952 -0.30810385 0 0 Z " fill="#7892A6" transform="translate(515,418)"/>
<path d="M0 0 C0.99 0.495 0.99 0.495 2 1 C0.10468802 2.58396089 -1.7912326 4.1671836 -3.6875 5.75 C-4.48317383 6.41515625 -4.48317383 6.41515625 -5.29492188 7.09375 C-7.7416931 9.13522783 -10.1928813 11.15029712 -12.70703125 13.109375 C-14.76374835 14.80520307 -16.33377224 16.43532647 -18 18.5 C-22.69826609 24.01580578 -28.12354787 28.74287571 -33.48925781 33.59130859 C-34.96423153 34.96664769 -36.37031834 36.41470894 -37.7734375 37.86328125 C-40 40 -40 40 -42 40 C-42.2671582 40.59095459 -42.53431641 41.18190918 -42.80957031 41.79077148 C-44.79336497 45.47234611 -47.80505141 48.13276292 -50.75 51.0625 C-51.66265625 51.99932617 -51.66265625 51.99932617 -52.59375 52.95507812 C-56.13638781 56.50150081 -59.30324449 59.03341372 -64 61 C-62.64763423 58.06120516 -61.10057341 55.70767089 -59 53.25 C-58.484375 52.63640625 -57.96875 52.0228125 -57.4375 51.390625 C-56 50 -56 50 -54 50 C-53.74734375 49.40832031 -53.4946875 48.81664062 -53.234375 48.20703125 C-51.85451102 45.73986939 -50.43638893 44.46288171 -48.25 42.6875 C-45.57800816 40.4336076 -43.21295618 38.20539973 -41 35.5 C-38.32642318 32.26583449 -35.38459664 29.58951479 -32.19140625 26.875 C-29.81138917 24.83862175 -27.50085389 22.73671448 -25.1875 20.625 C-17.11921066 13.34868998 -8.61417253 6.61483372 0 0 Z " fill="#6A8192" transform="translate(293,383)"/>
<path d="M0 0 C0.74267578 1.72680664 0.74267578 1.72680664 1 4 C-0.55126953 6.11889648 -0.55126953 6.11889648 -2.8828125 8.37109375 C-4.13964844 9.60375977 -4.13964844 9.60375977 -5.421875 10.86132812 C-6.31390625 11.71146484 -7.2059375 12.56160156 -8.125 13.4375 C-8.99382813 14.28376953 -9.86265625 15.13003906 -10.7578125 16.00195312 C-12.43443029 17.63384407 -14.1160518 19.26061378 -15.80322266 20.8815918 C-17.52587816 22.54279226 -19.22588611 24.21832273 -20.90625 25.921875 C-22.6683054 27.67078073 -24.44620011 29.25534692 -26.375 30.8125 C-29.77268581 33.66863326 -32.5920626 36.85398202 -35.421875 40.265625 C-37 42 -37 42 -40 44 C-40.66 43.34 -41.32 42.68 -42 42 C-38.60237744 37.84345831 -35.27280083 34.28676987 -31 31 C-28.13833918 28.28509102 -25.52553788 25.46039445 -23 22.4375 C-20.57976498 19.56073486 -17.9823527 17.30067209 -15 15 C-14.67 14.34 -14.34 13.68 -14 13 C-13.34 13 -12.68 13 -12 13 C-12 12.34 -12 11.68 -12 11 C-10.33784732 9.66104368 -8.67036393 8.32869858 -7 7 C-5.65705519 5.34106818 -4.32255312 3.67523395 -3 2 C-2.01 1.34 -1.02 0.68 0 0 Z " fill="#728B9D" transform="translate(709,373)"/>
<path d="M0 0 C10.75178637 -0.48229581 21.41803072 0.52697956 32.11621094 1.50488281 C32.81370453 1.56791595 33.51119812 1.6309491 34.22982788 1.69589233 C41.79506272 2.39217535 49.1769268 3.25511999 56.55371094 5.12988281 C56.55371094 5.45988281 56.55371094 5.78988281 56.55371094 6.12988281 C53.91371094 6.45988281 51.27371094 6.78988281 48.55371094 7.12988281 C48.55371094 6.46988281 48.55371094 5.80988281 48.55371094 5.12988281 C47.33748047 5.03900391 47.33748047 5.03900391 46.09667969 4.94628906 C44.989375 4.8625 43.88207031 4.77871094 42.74121094 4.69238281 C41.66226563 4.61117188 40.58332031 4.52996094 39.47167969 4.44628906 C37.41916609 4.28053273 35.36653553 4.10897416 33.32006836 3.88037109 C24.05868644 2.88964777 14.79507727 2.8911572 5.49121094 2.87988281 C4.61119415 2.87754639 3.73117737 2.87520996 2.82449341 2.87280273 C-11.34305649 2.85865078 -25.04164202 3.81999665 -39.07568359 5.84863281 C-42.23208252 6.2231098 -45.27220698 6.2355388 -48.44628906 6.12988281 C-48.44628906 5.79988281 -48.44628906 5.46988281 -48.44628906 5.12988281 C-32.37421095 2.19344954 -16.3048167 0.86568488 0 0 Z " fill="#5D707F" transform="translate(505.4462890625,304.8701171875)"/>
<path d="M0 0 C5 2 5 2 8.4375 3.875 C15.7139413 7.58265234 24.00341812 9.50911185 32 11 C32 11.33 32 11.66 32 12 C26.0912164 12.35358413 21.54616009 11.15564238 16 9.1875 C15.23171875 8.92646484 14.4634375 8.66542969 13.671875 8.39648438 C8.99341474 6.78527995 4.57347773 4.96006189 0 3 C-15.18 18.18 -30.36 33.36 -46 49 C-46.66 48.67 -47.32 48.34 -48 48 C-32.16 32.16 -16.32 16.32 0 0 Z " fill="#576C7B" transform="translate(466,579)"/>
<path d="M0 0 C0.66 0.33 1.32 0.66 2 1 C1.47043701 1.51908936 0.94087402 2.03817871 0.39526367 2.57299805 C-2.0126192 4.93917912 -4.41259779 7.31322604 -6.8125 9.6875 C-7.64587891 10.50412109 -8.47925781 11.32074219 -9.33789062 12.16210938 C-10.54155273 13.35610352 -10.54155273 13.35610352 -11.76953125 14.57421875 C-12.50792236 15.30213623 -13.24631348 16.03005371 -14.00708008 16.7800293 C-16.04785492 19.05330697 -17.47270298 21.36351705 -19 24 C-20.51663081 25.64760066 -22.08091699 27.25248462 -23.6875 28.8125 C-24.49574219 29.60269531 -25.30398438 30.39289062 -26.13671875 31.20703125 C-27.05904297 32.09455078 -27.05904297 32.09455078 -28 33 C-28.99 32.67 -29.98 32.34 -31 32 C-29.60596932 30.4358915 -28.20968495 28.8737915 -26.8125 27.3125 C-25.64654297 26.00732422 -25.64654297 26.00732422 -24.45703125 24.67578125 C-22.03625272 22.0394803 -19.54525857 19.51633518 -17 17 C-15.59696705 15.59834579 -14.19469561 14.19592912 -12.79296875 12.79296875 C-8.52864583 8.52864583 -4.26432292 4.26432292 0 0 Z " fill="#687E90" transform="translate(377,590)"/>
<path d="M0 0 C5.25174926 4.38442526 10.13222473 9.00842093 14.9375 13.875 C15.62134766 14.56335938 16.30519531 15.25171875 17.00976562 15.9609375 C18.67551464 17.63833511 20.3388622 19.31803791 22 21 C20.27050781 21.73120117 20.27050781 21.73120117 18 22 C15.89355469 20.5246582 15.89355469 20.5246582 13.671875 18.30078125 C12.87265625 17.50349609 12.0734375 16.70621094 11.25 15.88476562 C10.425 15.03591797 9.6 14.18707031 8.75 13.3125 C7.90953125 12.48298828 7.0690625 11.65347656 6.203125 10.79882812 C0 4.52017806 0 4.52017806 0 0 Z " fill="#728A9C" transform="translate(233,577)"/>
<path d="M0 0 C0.33 0.66 0.66 1.32 1 2 C0.17546539 3.92791184 -0.73783051 5.81805376 -1.6875 7.6875 C-6.72145343 18.2236816 -10.25976838 29.99548065 -10 41.75 C-9.89005236 46.78010471 -9.89005236 46.78010471 -11 49 C-11.66 49 -12.32 49 -13 49 C-12.54392204 30.5744506 -8.86956485 16.18910866 0 0 Z " fill="#607585" transform="translate(437,460)"/>
<path d="M0 0 C0 3 0 3 -2.38671875 5.6796875 C-3.47989933 6.75205688 -4.58072202 7.81667001 -5.6875 8.875 C-6.26459717 9.4407373 -6.84169434 10.00647461 -7.4362793 10.58935547 C-9.91040129 13.01430943 -12.40179336 15.42124975 -14.89160156 17.83007812 C-16.70459246 19.58899238 -18.50868136 21.35668861 -20.3125 23.125 C-21.16557739 23.94073486 -21.16557739 23.94073486 -22.03588867 24.77294922 C-23.41484831 26.12565719 -24.71523336 27.55752878 -26 29 C-26 29.99 -26 30.98 -26 32 C-27.32 31.67 -28.64 31.34 -30 31 C-28.90445179 27.71335536 -28.22061852 27.11728353 -25.625 24.99609375 C-20.11503488 20.32123272 -15.08274681 15.19142192 -10 10.0625 C-9.02497614 9.0824469 -8.0497172 8.1026276 -7.07421875 7.12304688 C-4.71383382 4.75097687 -2.35583095 2.3765914 0 0 Z " fill="#596E7D" transform="translate(427,656)"/>
<path d="M0 0 C10.88529859 0.45949586 21.31408771 1.92036713 32 4 C32 4.33 32 4.66 32 5 C29.36 5.33 26.72 5.66 24 6 C24 5.34 24 4.68 24 4 C22.78376953 3.90912109 22.78376953 3.90912109 21.54296875 3.81640625 C14.35562253 3.2725442 7.17613301 2.67590832 0 2 C0 1.34 0 0.68 0 0 Z " fill="#627786" transform="translate(530,306)"/>
<path d="M0 0 C0 3.98189489 -1.47178333 4.98018565 -4 8 C-4.928125 9.485 -4.928125 9.485 -5.875 11 C-8.28622171 14.40407771 -10.71490086 16.4615143 -14 19 C-14 14.67867735 -11.4074309 12.59379278 -8.6875 9.5 C-7.93823242 8.62794922 -7.93823242 8.62794922 -7.17382812 7.73828125 C-4.86368492 5.06402276 -2.51935983 2.48008868 0 0 Z " fill="#687E8E" transform="translate(228,444)"/>
<path d="M0 0 C0.66 0.33 1.32 0.66 2 1 C0.11160369 3.11126924 -1.78513558 5.21387758 -3.6875 7.3125 C-4.48317383 8.20485352 -4.48317383 8.20485352 -5.29492188 9.11523438 C-8.28431457 12.39806439 -10.99478873 14.94166322 -15 17 C-11.80573668 9.96948907 -6.00185406 4.6843739 0 0 Z " fill="#687F91" transform="translate(458,436)"/>
<path d="M0 0 C0.66 0.33 1.32 0.66 2 1 C-4.33333333 7.33333333 -10.66666667 13.66666667 -17 20 C-17 17 -17 17 -15.43945312 15.09887695 C-14.37114258 14.05413208 -14.37114258 14.05413208 -13.28125 12.98828125 C-12.51425781 12.23095703 -11.74726562 11.47363281 -10.95703125 10.69335938 C-10.14621094 9.90767578 -9.33539062 9.12199219 -8.5 8.3125 C-7.68917969 7.51521484 -6.87835937 6.71792969 -6.04296875 5.89648438 C-4.03517797 3.9241252 -2.0207313 1.95908508 0 0 Z " fill="#5D7280" transform="translate(665,416)"/>
<path d="M0 0 C0.33 0 0.66 0 1 0 C1 4.29 1 8.58 1 13 C1.66 13.33 2.32 13.66 3 14 C1.35 15.65 -0.3 17.3 -2 19 C-2.24991456 12.34949576 -1.73955334 6.43013467 0 0 Z " fill="#86A2B7" transform="translate(428,487)"/>
<path d="M0 0 C3.87051275 3.07881696 7.02911382 6.00073014 10 10 C9.67 10.66 9.34 11.32 9 12 C7.67522041 10.95285076 6.36556254 9.88655331 5.0625 8.8125 C4.33160156 8.22082031 3.60070312 7.62914062 2.84765625 7.01953125 C0.70261197 4.67494797 0.33905588 3.11608502 0 0 Z " fill="#677D8D" transform="translate(795,444)"/>
<path d="M0 0 C0.8125 1.6875 0.8125 1.6875 1 4 C-1.4375 6.75 -1.4375 6.75 -4 9 C-4.99 8.67 -5.98 8.34 -7 8 C-6.67 7.34 -6.34 6.68 -6 6 C-5.34 6 -4.68 6 -4 6 C-3.71125 5.38125 -3.4225 4.7625 -3.125 4.125 C-2 2 -2 2 0 0 Z " fill="#6D8596" transform="translate(621,597)"/>
<path d="M0 0 C0.66 0.99 1.32 1.98 2 3 C-0.62198774 5.15377564 -2.64404172 6.40072174 -6 7 C-4.60667426 3.63279613 -3.0210714 2.0140476 0 0 Z " fill="#6C8496" transform="translate(685,397)"/>
<path d="M0 0 C3.19199167 2.41556126 5.74716687 4.68003538 8 8 C7.67 8.66 7.34 9.32 7 10 C1.21538462 5.69230769 1.21538462 5.69230769 0.125 2.1875 C0.08375 1.465625 0.0425 0.74375 0 0 Z " fill="#667D8D" transform="translate(805,456)"/>
<path d="M0 0 C0.66 0.33 1.32 0.66 2 1 C0.54782324 2.50596108 -0.91192861 4.00462104 -2.375 5.5 C-3.18710937 6.3353125 -3.99921875 7.170625 -4.8359375 8.03125 C-7 10 -7 10 -9 10 C-7.84906278 6.54718834 -6.6794007 5.61917837 -3.9375 3.3125 C-2.83728516 2.37857422 -2.83728516 2.37857422 -1.71484375 1.42578125 C-1.14894531 0.95527344 -0.58304687 0.48476563 0 0 Z " fill="#829DB1" transform="translate(260,413)"/>
<path d="M0 0 C0.66 0.33 1.32 0.66 2 1 C0.74057614 2.19959375 -0.53295286 3.38439443 -1.8125 4.5625 C-2.87404297 5.55443359 -2.87404297 5.55443359 -3.95703125 6.56640625 C-4.63121094 7.03949219 -5.30539062 7.51257813 -6 8 C-6.99 7.67 -7.98 7.34 -9 7 C-6.03 4.69 -3.06 2.38 0 0 Z " fill="#859FB3" transform="translate(308,374)"/>
<path d="M0 0 C2.25 0.125 2.25 0.125 5 1 C7.3125 4.0625 7.3125 4.0625 9 7 C5.18315774 5.44499019 2.80804268 2.96404505 0 0 Z " fill="#6A8192" transform="translate(271,615)"/>
<path d="M0 0 C0 3.51716303 -0.82445585 4.37121748 -3 7 C-2.34 7.66 -1.68 8.32 -1 9 C-2.32 9.33 -3.64 9.66 -5 10 C-5.68359375 8.203125 -5.68359375 8.203125 -6 6 C-4.78515625 4.296875 -4.78515625 4.296875 -3.0625 2.75 C-2.21365234 1.96882812 -2.21365234 1.96882812 -1.34765625 1.171875 C-0.90292969 0.78515625 -0.45820313 0.3984375 0 0 Z " fill="#87A1B6" transform="translate(406,679)"/>
<path d="M0 0 C0.99 0.33 1.98 0.66 3 1 C2.01 1.8971875 2.01 1.8971875 1 2.8125 C-1.3373846 4.87501834 -1.3373846 4.87501834 -1 8 C-2.32 7.67 -3.64 7.34 -5 7 C-3.88820837 3.66462511 -2.52588702 2.36292656 0 0 Z " fill="#677D8D" transform="translate(402,680)"/>
<path d="M0 0 C4 1 4 1 4 1 Z " fill="#8198AA" transform="translate(520,363)"/>
<path d="M0 0 C3 1 3 1 3 1 Z " fill="#7B91A2" transform="translate(464,707)"/>
<path d="M0 0 C0.66 0.66 1.32 1.32 2 2 C1.34 2 0.68 2 0 2 C0 1.34 0 0.68 0 0 Z " fill="#8097A8" transform="translate(218,565)"/>
<path d="M0 0 C2 1 2 1 2 1 Z " fill="#7D93A5" transform="translate(434,701)"/>
<path d="M0 0 C2 1 2 1 2 1 Z " fill="#7E94A4" transform="translate(596,700)"/>
<path d="M0 0 C2 1 2 1 2 1 Z " fill="#7E93A4" transform="translate(641,685)"/>
<path d="M0 0 C2 1 2 1 2 1 Z " fill="#8098AC" transform="translate(576,632)"/>
<path d="M0 0 C2 1 2 1 2 1 Z " fill="#728A9E" transform="translate(532,591)"/>
<path d="" fill="#829BAE" transform="translate(0,0)"/>
<path d="M0 0 C2 1 2 1 2 1 Z " fill="#7A93A5" transform="translate(606,321)"/>
<path d="M0 0 C2 1 2 1 2 1 Z " fill="#7D93A6" transform="translate(434,313)"/>
<path d="M0 0 C2 1 2 1 2 1 Z " fill="#8098A9" transform="translate(496,304)"/>
<path d="" fill="#414546" transform="translate(0,0)"/>
<path d="" fill="#7B8E9F" transform="translate(0,0)"/>
<path d="" fill="#7C93A4" transform="translate(0,0)"/>
<path d="" fill="#798E9F" transform="translate(0,0)"/>
<path d="" fill="#8097A8" transform="translate(0,0)"/>
<path d="" fill="#7A92A1" transform="translate(0,0)"/>
<path d="" fill="#7F93A7" transform="translate(0,0)"/>
<path d="" fill="#7D94A5" transform="translate(0,0)"/>
<path d="" fill="#7F94A6" transform="translate(0,0)"/>
<path d="" fill="#7B90A1" transform="translate(0,0)"/>
<path d="" fill="#7C8FA1" transform="translate(0,0)"/>
<path d="" fill="#7D94A9" transform="translate(0,0)"/>
<path d="" fill="#7F97A9" transform="translate(0,0)"/>
<path d="" fill="#7F97A9" transform="translate(0,0)"/>
<path d="" fill="#8097A8" transform="translate(0,0)"/>
<path d="" fill="#7D93A4" transform="translate(0,0)"/>
<path d="" fill="#7E96A7" transform="translate(0,0)"/>
<path d="" fill="#8197A9" transform="translate(0,0)"/>
<path d="" fill="#839CAC" transform="translate(0,0)"/>
<path d="" fill="#839AAC" transform="translate(0,0)"/>
<path d="" fill="#7E95A7" transform="translate(0,0)"/>
<path d="" fill="#8196A9" transform="translate(0,0)"/>
<path d="" fill="#8097A6" transform="translate(0,0)"/>
<path d="" fill="#8399AD" transform="translate(0,0)"/>
<path d="" fill="#7E98A8" transform="translate(0,0)"/>
<path d="" fill="#829AAC" transform="translate(0,0)"/>
<path d="" fill="#748FA1" transform="translate(0,0)"/>
<path d="" fill="#7C92A6" transform="translate(0,0)"/>
<path d="" fill="#6D8699" transform="translate(0,0)"/>
<path d="" fill="#829CAE" transform="translate(0,0)"/>
<path d="" fill="#8195AA" transform="translate(0,0)"/>
<path d="" fill="#8299AA" transform="translate(0,0)"/>
<path d="" fill="#7D97A6" transform="translate(0,0)"/>
<path d="" fill="#7E95A7" transform="translate(0,0)"/>
<path d="" fill="#7E95A5" transform="translate(0,0)"/>
<path d="" fill="#7890A1" transform="translate(0,0)"/>
<path d="" fill="#70899A" transform="translate(0,0)"/>
<path d="" fill="#8098AB" transform="translate(0,0)"/>
<path d="" fill="#7D91A2" transform="translate(0,0)"/>
<path d="" fill="#8097A7" transform="translate(0,0)"/>
<path d="" fill="#8098A9" transform="translate(0,0)"/>
<path d="" fill="#7F97AA" transform="translate(0,0)"/>
<path d="" fill="#7A90A1" transform="translate(0,0)"/>
<path d="" fill="#728BA0" transform="translate(0,0)"/>
<path d="" fill="#7F98AA" transform="translate(0,0)"/>
<path d="" fill="#7F97A8" transform="translate(0,0)"/>
<path d="" fill="#7D92A8" transform="translate(0,0)"/>
<path d="" fill="#8097A8" transform="translate(0,0)"/>
<path d="" fill="#7D93A3" transform="translate(0,0)"/>
<path d="" fill="#8098AB" transform="translate(0,0)"/>
<path d="" fill="#839BAB" transform="translate(0,0)"/>
<path d="" fill="#8096A6" transform="translate(0,0)"/>
<path d="" fill="#8297AA" transform="translate(0,0)"/>
<path d="" fill="#8198A9" transform="translate(0,0)"/>
<path d="" fill="#8299AC" transform="translate(0,0)"/>
<path d="" fill="#8098AC" transform="translate(0,0)"/>
<path d="" fill="#8198AA" transform="translate(0,0)"/>
<path d="" fill="#7F97A9" transform="translate(0,0)"/>
<path d="" fill="#7E95A6" transform="translate(0,0)"/>
<path d="" fill="#8096A9" transform="translate(0,0)"/>
<path d="" fill="#7F98A9" transform="translate(0,0)"/>
<path d="" fill="#7F97A7" transform="translate(0,0)"/>
<path d="" fill="#7F99AB" transform="translate(0,0)"/>
<path d="" fill="#7D97AA" transform="translate(0,0)"/>
<path d="" fill="#7F93A6" transform="translate(0,0)"/>
<path d="" fill="#8399A8" transform="translate(0,0)"/>
<path d="" fill="#7F98A8" transform="translate(0,0)"/>
<path d="" fill="#8097A9" transform="translate(0,0)"/>
<path d="" fill="#7F95A7" transform="translate(0,0)"/>
<path d="" fill="#859AAB" transform="translate(0,0)"/>
<path d="" fill="#8298AA" transform="translate(0,0)"/>
<path d="" fill="#7F97AC" transform="translate(0,0)"/>
<path d="" fill="#7F94A2" transform="translate(0,0)"/>
<path d="" fill="#839CAE" transform="translate(0,0)"/>
<path d="" fill="#839AAA" transform="translate(0,0)"/>
<path d="" fill="#859CAD" transform="translate(0,0)"/>
<path d="" fill="#839AAB" transform="translate(0,0)"/>
<path d="" fill="#7D93A5" transform="translate(0,0)"/>
<path d="" fill="#8499AE" transform="translate(0,0)"/>
<path d="" fill="#8399AA" transform="translate(0,0)"/>
<path d="" fill="#8297AB" transform="translate(0,0)"/>
<path d="" fill="#7F98AB" transform="translate(0,0)"/>
<path d="" fill="#839BAD" transform="translate(0,0)"/>
<path d="" fill="#8198AA" transform="translate(0,0)"/>
<path d="" fill="#7E95A6" transform="translate(0,0)"/>
<path d="" fill="#839DAE" transform="translate(0,0)"/>
<path d="" fill="#839AA9" transform="translate(0,0)"/>
<path d="" fill="#7F95A8" transform="translate(0,0)"/>
<path d="" fill="#7B95A8" transform="translate(0,0)"/>
<path d="" fill="#7E95A6" transform="translate(0,0)"/>
<path d="" fill="#7D93A6" transform="translate(0,0)"/>
<path d="" fill="#8298A8" transform="translate(0,0)"/>
<path d="" fill="#7E93A7" transform="translate(0,0)"/>
<path d="" fill="#8097A9" transform="translate(0,0)"/>
<path d="" fill="#8197A8" transform="translate(0,0)"/>
<path d="" fill="#8399A7" transform="translate(0,0)"/>
<path d="" fill="#809BA9" transform="translate(0,0)"/>
<path d="" fill="#8197A8" transform="translate(0,0)"/>
<path d="" fill="#8096A7" transform="translate(0,0)"/>
<path d="" fill="#7E93A4" transform="translate(0,0)"/>
<path d="" fill="#7D96A6" transform="translate(0,0)"/>
<path d="" fill="#7D94A5" transform="translate(0,0)"/>
<path d="" fill="#7B91A4" transform="translate(0,0)"/>
</svg>
